# xmcd
#
# Track frame offsets: 
#        150
#        21934
#        46885
#        65160
#
# Disc length: 1225 seconds
#
# Revision: 0
# Processed by: cddbd v1.5.2PL0 Copyright (c) Steve Scherf et al.
# Submitted via: ExactAudioCopy v0.99pb5
#
DISCID=3204c704
DTITLE=Joy Denalane - Geh jetzt (Maxi)
DYEAR=2002
DGENRE=Blues
TTITLE0=Geh Jetzt (Radio Edit)
TTITLE1=Geh Jetzt (Album Version)
TTITLE2=Frico Rmx feat. Afrob
TTITLE3=Geh jetzt (von Laukat)
EXTD=
EXTT0=
EXTT1=
EXTT2=
EXTT3=
PLAYORDER=
